<?xml version="1.0" encoding="UTF-8"?>
<svg version="1.1" xmlns="http://www.w3.org/2000/svg" width="153" height="126">
<path d="M0 0 C0.625 2.5625 0.625 2.5625 1 5 C1.66 3.02 2.32 1.04 3 -1 C15.32664342 -0.4853176 23.60381627 4.21297663 32.625 12.375 C42.65496806 23.46075418 47.45168251 34.78025084 47.19140625 49.82421875 C46.93527269 54.07394495 46.18967498 57.92327938 45 62 C44.82855469 62.71414062 44.65710938 63.42828125 44.48046875 64.1640625 C41.12840444 76.4045038 31.33657114 86.29024319 20.75 92.8125 C8.9289532 98.90837083 -4.37236397 99.54380066 -17.015625 96.0390625 C-30.7083292 91.27170737 -40.60418613 82.31745016 -47.2890625 69.53515625 C-52.41222662 58.45953886 -53.03486075 44.10045873 -49.375 32.4375 C-46.29845041 24.67546322 -42.32172445 17.55078244 -36 12 C-35.49984375 11.52046875 -34.9996875 11.0409375 -34.484375 10.546875 C-26.49759285 3.15723544 -10.94491203 -5.47245601 0 0 Z M1 6 C0.79375 6.7940625 0.5875 7.588125 0.375 8.40625 C-1 11 -1 11 -3.6875 11.96875 C-4.780625 12.1440625 -5.87375 12.319375 -7 12.5 C-17.10350234 14.50731835 -24.26200285 18.16731423 -31 26 C-31.5775 26.66 -32.155 27.32 -32.75 28 C-38.23167014 36.77067222 -39.19750213 46.56647136 -37.25 56.5625 C-34.76054589 66.33403077 -29.41681622 73.79710377 -20.8828125 79.38671875 C-18.95081035 80.39782494 -17.04085995 81.23520569 -15 82 C-13.906875 82.4125 -12.81375 82.825 -11.6875 83.25 C-1.1162991 85.40007476 8.57445902 83.98854904 17.75 78.25 C25.27552074 72.86135552 31.28165979 65.28876359 33 56 C33.63243354 46.60680681 33.66345916 38.44947304 29 30 C28.443125 28.96875 27.88625 27.9375 27.3125 26.875 C21.17763368 19.2478689 14.80693925 14.01391003 5.0625 12.3125 C3.5465625 12.1578125 3.5465625 12.1578125 2 12 C2 10.02 2 8.04 2 6 C1.67 6 1.34 6 1 6 Z " fill="#6D6D6D" transform="translate(77,23)"/>
<path d="M0 0 C12.32664342 0.5146824 20.60381627 5.21297663 29.625 13.375 C39.65496806 24.46075418 44.45168251 35.78025084 44.19140625 50.82421875 C43.93527269 55.07394495 43.18967498 58.92327938 42 63 C41.82855469 63.71414062 41.65710938 64.42828125 41.48046875 65.1640625 C38.12840444 77.4045038 28.33657114 87.29024319 17.75 93.8125 C5.82524679 99.96185009 -7.37761467 100.45930959 -20.1171875 97 C-24.39649932 95.51557747 -28.19191291 93.43294453 -32 91 C-29.45703404 90.04710531 -28.40555889 89.8155869 -25.88671875 90.9609375 C-25.16097656 91.42757812 -24.43523438 91.89421875 -23.6875 92.375 C-19.65067103 94.7369048 -16.74929411 95.76253529 -12 96 C-11.05382812 96.061875 -10.10765625 96.12375 -9.1328125 96.1875 C2.94390972 96.65087543 14.38777381 93.50456197 24 86 C31.01930266 79.20212645 36.5251664 72.35308466 39.38671875 62.953125 C40 61 40 61 41 59 C41.2275015 57.12943209 41.40962811 55.25314042 41.5625 53.375 C41.706875 51.60125 41.85125 49.8275 42 48 C38.04 48 34.08 48 30 48 C29.7525 46.535625 29.505 45.07125 29.25 43.5625 C27.1002533 33.05097992 22.54727742 25.64423226 14.3125 18.75 C9.42987776 16.17050146 4.27170274 14.60368951 -1 13 C-2.0070238 7.96488101 -1.97387813 4.76052962 0 0 Z " fill="#D0453A" transform="translate(80,22)"/>
<path d="M0 0 C5.13308566 7.69962849 4.88046012 17.6191373 3.65234375 26.51953125 C3.19437204 28.71702577 2.62868983 30.84563611 2 33 C1.82855469 33.71414062 1.65710938 34.42828125 1.48046875 35.1640625 C-1.87159556 47.4045038 -11.66342886 57.29024319 -22.25 63.8125 C-34.17475321 69.96185009 -47.37761467 70.45930959 -60.1171875 67 C-64.39649932 65.51557747 -68.19191291 63.43294453 -72 61 C-69.45703404 60.04710531 -68.40555889 59.8155869 -65.88671875 60.9609375 C-65.16097656 61.42757812 -64.43523437 61.89421875 -63.6875 62.375 C-59.65067103 64.7369048 -56.74929411 65.76253529 -52 66 C-51.05382812 66.061875 -50.10765625 66.12375 -49.1328125 66.1875 C-37.05609028 66.65087543 -25.61222619 63.50456197 -16 56 C-8.98069734 49.20212645 -3.4748336 42.35308466 -0.61328125 32.953125 C0 31 0 31 1 29 C1.2275015 27.12943209 1.40962811 25.25314042 1.5625 23.375 C1.706875 21.60125 1.85125 19.8275 2 18 C-1.96 18 -5.92 18 -10 18 C-10 16.02 -10 14.04 -10 12 C-6.37 12 -2.74 12 1 12 C0.505 6.06 0.505 6.06 0 0 Z " fill="#E8E8E8" transform="translate(120,52)"/>
<path d="M0 0 C0.99 0.33 1.98 0.66 3 1 C4.20796759 8.24780554 4.20796759 8.24780554 3.3984375 11.17578125 C1.32357027 13.8823818 -0.68984479 13.87149469 -4 14.4375 C-15.67083762 16.87963563 -22.83635833 21.33741356 -30 31 C-35.26296857 39.80037367 -34.88976913 50.35020798 -32.51171875 59.98046875 C-32.34285156 60.64691406 -32.17398438 61.31335938 -32 62 C-31.66013333 63.66534667 -31.32297514 65.33129513 -31 67 C-35.73723658 62.78191263 -35.87057387 57.18908681 -36.2265625 51.16796875 C-36.60112556 38.71743354 -35.01614645 31.50691915 -26.3515625 22.26171875 C-20.12784284 16.2757824 -13.18939745 11.80884931 -4.3125 11.9375 C-2.1778125 11.9684375 -2.1778125 11.9684375 0 12 C0 8.04 0 4.08 0 0 Z " fill="#DADADA" transform="translate(74,22)"/>
<path d="M0 0 C5.13308566 7.69962849 4.88046012 17.6191373 3.65234375 26.51953125 C3.1939009 28.71928644 2.64055241 30.84648637 2 33 C1.75894531 33.83015625 1.51789063 34.6603125 1.26953125 35.515625 C-0.14749384 40.0903862 -0.14749384 40.0903862 -1 42 C-1.99 42.495 -1.99 42.495 -3 43 C-2.3098815 40.08690362 -1.43647707 37.2797079 -0.5 34.4375 C1.17330787 28.96047764 1.63428338 23.70517922 2 18 C-1.96 18 -5.92 18 -10 18 C-10 16.02 -10 14.04 -10 12 C-6.37 12 -2.74 12 1 12 C0.67 8.04 0.34 4.08 0 0 Z " fill="#F0E0DF" transform="translate(120,52)"/>
<path d="M0 0 C0.68359375 1.73046875 0.68359375 1.73046875 1 4 C-3.85706244 12.90735857 -13.49082285 21.39889149 -23 25 C-23.99 24.67 -24.98 24.34 -26 24 C-23.49499736 21.8633801 -21.25837736 20.11744426 -18.25 18.75 C-10.12921477 14.37726949 -4.63228811 7.84764103 0 0 Z " fill="#DEDEDE" transform="translate(116,93)"/>
<path d="M0 0 C0.99 0.33 1.98 0.66 3 1 C4.21319797 8.27918782 4.21319797 8.27918782 3.34375 11.21875 C2 13 2 13 -0.3828125 13.609375 C-1.28773437 13.65578125 -2.19265625 13.7021875 -3.125 13.75 C-4.03507812 13.80671875 -4.94515625 13.8634375 -5.8828125 13.921875 C-6.93082031 13.96054687 -6.93082031 13.96054687 -8 14 C-5 12 -5 12 0 12 C0 8.04 0 4.08 0 0 Z " fill="#E6E7E7" transform="translate(74,22)"/>
<path d="M0 0 C0.33 0 0.66 0 1 0 C1.33 3.3 1.66 6.6 2 10 C2.74765625 10.17015625 3.4953125 10.3403125 4.265625 10.515625 C5.25046875 10.75796875 6.2353125 11.0003125 7.25 11.25 C8.71179688 11.59804688 8.71179688 11.59804688 10.203125 11.953125 C13.31523411 13.11799266 14.84212456 14.51330545 17 17 C13.78008917 17 11.8135902 16.1035022 8.91796875 14.80078125 C6.01043365 13.58684093 3.04325056 12.80739301 0 12 C-0.76173392 7.6835078 -1.16063604 4.25566547 0 0 Z " fill="#F1D0CF" transform="translate(79,23)"/>
<path d="M0 0 C0.66 0.33 1.32 0.66 2 1 C-3.06699482 5.16217431 -7.34540028 5.14119546 -13.75 5.0625 C-14.44738281 5.05798828 -15.14476563 5.05347656 -15.86328125 5.04882812 C-17.57555803 5.0371002 -19.28779033 5.01916653 -21 5 C-21 4.67 -21 4.34 -21 4 C-19.90300781 3.87882812 -18.80601563 3.75765625 -17.67578125 3.6328125 C-16.22131177 3.46390637 -14.76688696 3.29461519 -13.3125 3.125 C-12.59126953 3.04636719 -11.87003906 2.96773438 -11.12695312 2.88671875 C-7.0731077 2.4054403 -3.79619872 1.56355495 0 0 Z " fill="#CCCCCC" transform="translate(91,115)"/>
<path d="M0 0 C0.33 0.99 0.66 1.98 1 3 C-1.3125 6.1875 -1.3125 6.1875 -4 9 C-4.66 9 -5.32 9 -6 9 C-6.12375 9.804375 -6.2475 10.60875 -6.375 11.4375 C-6.58125 12.283125 -6.7875 13.12875 -7 14 C-7.99 14.495 -7.99 14.495 -9 15 C-7.76372623 8.40653991 -4.61935701 4.75522045 0 0 Z " fill="#C7C7C7" transform="translate(48,44)"/>
<path d="M0 0 C3.91939465 3.80411834 7.49102731 7.81576108 11 12 C8.6875 11.8125 8.6875 11.8125 6 11 C4.375 8.5625 4.375 8.5625 3 6 C2.01 5.34 1.02 4.68 0 4 C0 2.68 0 1.36 0 0 Z " fill="#B2B2B2" transform="translate(43,89)"/>
<path d="M0 0 C4.12751449 0.60698743 7.3321148 2.03810791 11 4 C9.4375 4.75 9.4375 4.75 7 5 C4.49713591 3.86915563 2.32992278 2.47860484 0 1 C0 0.67 0 0.34 0 0 Z " fill="#B8B8B9" transform="translate(48,112)"/>
<path d="M0 0 C0.8125 1.6875 0.8125 1.6875 1 4 C-1.4375 6.75 -1.4375 6.75 -4 9 C-4 5.00095031 -2.27413033 3.19799578 0 0 Z " fill="#CBCBCB" transform="translate(116,93)"/>
<path d="M0 0 C3.77545388 1.09068668 6.47043472 1.9083091 9 5 C5.74188938 5 3.89558441 4.4477922 1 3 C0.67 2.01 0.34 1.02 0 0 Z " fill="#E5A09F" transform="translate(87,35)"/>
<path d="M0 0 C3.91402949 1.26941497 5.79072873 2.51167694 8 6 C5.21788056 5.62403791 3.4120716 5.32681541 1.1875 3.5625 C0 2 0 2 0 0 Z " fill="#E08B88" transform="translate(99,28)"/>
</svg>
